<svg width="991" height="103" viewBox="0 0 991 103" fill="none" xmlns="http://www.w3.org/2000/svg">
<g filter="url(#filter0_d_33_40)">
<g filter="url(#filter1_d_33_40)">
<path d="M95.4481 11.1057L62.3622 90.9338H44.931L10.4018 11.1057H29.1653L53.147 70.5049L77.6839 11.1057H95.4481Z" fill="white"/>
<path d="M117.339 90.9338H99.7972V11.1057H117.339V90.9338Z" fill="white"/>
<path d="M196.925 90.9338H175.497L145.186 51.2973V90.9338H128.421V11.1057H145.186V49.5209L176.607 11.1057H196.703L164.616 50.187L196.925 90.9338Z" fill="white"/>
<path d="M277.627 90.9338H258.975L251.647 71.8372H216.896L210.012 90.9338H192.248L225.778 11.1057H243.542L277.627 90.9338ZM246.207 57.7368L234.105 27.2046L222.336 57.7368H246.207Z" fill="white"/>
<path d="M370.319 90.9338H342.119L335.013 90.6007L332.459 90.4897C331.867 90.4897 331.164 90.3787 330.35 90.1566C329.832 90.0086 329.536 89.8975 329.462 89.8235C329.018 89.7495 328.685 89.6755 328.462 89.6015C320.543 87.603 314.473 82.9029 310.254 75.5011C308.478 72.5404 307.145 69.2836 306.257 65.7308C305.295 62.4 304.814 58.8101 304.814 54.9612C304.814 47.6334 305.406 41.453 306.59 36.4198C307.775 31.2385 309.773 26.7604 312.586 22.9855C315.842 18.6185 319.913 15.5838 324.799 13.8814C326.797 13.1412 329.647 12.438 333.348 11.7719C336.604 11.3278 348.928 11.1057 370.319 11.1057V24.984H342.785C330.202 24.984 323.91 31.2015 323.91 43.6365H370.319V57.5148H323.91C323.91 60.6976 324.169 63.3622 324.688 65.5087C324.91 66.693 325.243 67.8033 325.687 68.8395C326.057 69.6537 326.686 70.5789 327.574 71.6152L330.572 74.5019C331.534 75.242 332.718 75.8342 334.125 76.2783C335.605 76.7224 336.974 76.9444 338.233 76.9444L370.319 77.0555V90.9338Z" fill="white"/>
<path d="M457.895 90.9338H439.132L421.478 59.7353H401.827V90.9338H385.062V11.1057H430.361L433.469 11.6608L435.801 11.9939C436.541 11.9939 437.022 12.0309 437.244 12.1049C437.614 12.179 438.502 12.401 439.909 12.7711C444.572 13.8814 448.199 16.731 450.789 21.3201C453.084 25.3911 454.231 30.1653 454.231 35.6426C454.231 41.1199 452.936 45.783 450.345 49.6319C447.903 53.4068 443.869 56.0344 438.243 57.5148L457.895 90.9338ZM437.355 35.4205C437.355 32.0897 436.467 29.6471 434.691 28.0928C432.618 26.3163 428.51 25.4281 422.367 25.4281H401.827V45.635H422.367C428.436 45.635 432.47 44.7467 434.469 42.9703C436.393 41.1199 437.355 38.6033 437.355 35.4205Z" fill="white"/>
<path d="M533.393 11.1057L502.861 55.8494V90.9338H485.874V55.8494L455.786 11.1057H474.438L494.201 41.749L514.075 11.1057H533.393Z" fill="white"/>
<path d="M605.576 90.9338H584.148L553.838 51.2973V90.9338H537.073V11.1057H553.838V49.5209L585.258 11.1057H605.354L573.267 50.187L605.576 90.9338Z" fill="white"/>
<path d="M686.278 90.9338H667.626L660.298 71.8372H625.547L618.663 90.9338H600.899L634.429 11.1057H652.193L686.278 90.9338ZM654.858 57.7368L642.756 27.2046L630.987 57.7368H654.858Z" fill="white"/>
<path d="M744.862 90.9338H720.881C709.926 90.9338 702.043 88.2692 697.232 82.9399C692.421 77.5366 690.015 53.5919 690.015 11.1057H706.669V54.9612L706.78 59.8464L707.002 65.5087C707.446 70.1718 709.482 73.4286 713.109 75.279C715.921 76.9074 726.506 77.7216 744.862 77.7216V90.9338Z" fill="white"/>
<path d="M828.425 56.8486C828.425 66.693 825.132 75.131 818.544 82.1627C815.361 85.5675 811.253 88.1581 806.22 89.9345C801.261 91.711 795.302 92.5992 788.345 92.5992C774.874 92.5992 764.844 89.0833 758.257 82.0517C751.743 75.094 748.486 64.6945 748.486 50.8532C748.486 37.308 751.743 27.0565 758.257 20.0989C764.77 13.0672 773.8 9.55133 785.347 9.55133C796.894 9.55133 805.665 11.2167 811.66 14.5475C818.47 18.2484 823.207 24.5029 825.872 33.311C826.686 36.4198 827.315 39.8246 827.759 43.5255C828.203 47.5224 828.425 51.9635 828.425 56.8486ZM810.106 51.1863C810.106 42.7483 808.626 36.2717 805.665 31.7566C802.038 26.1313 796.265 23.3186 788.345 23.3186C780.795 23.3186 775.133 26.0943 771.358 31.6456C768.249 36.3087 766.695 41.8601 766.695 48.2996C766.695 55.0352 767.398 60.8826 768.804 65.8418C769.396 68.1363 770.358 70.3199 771.691 72.3924C773.245 74.3908 775.17 75.8342 777.464 76.7224L783.016 78.2768C785.236 78.7209 788.641 78.9429 793.23 78.9429C797.671 78.9429 801.779 76.1673 805.554 70.6159C808.589 65.8048 810.106 59.3282 810.106 51.1863Z" fill="white"/>
<path d="M913.076 11.1057L879.99 90.9338H862.559L828.03 11.1057H846.793L870.775 70.5049L895.312 11.1057H913.076Z" fill="white"/>
<path d="M980 90.9338H961.348L954.02 71.8372H919.269L912.385 90.9338H894.621L928.151 11.1057H945.915L980 90.9338ZM948.58 57.7368L936.478 27.2046L924.709 57.7368H948.58Z" fill="white"/>
</g>
<path d="M88.0463 5.55437L54.9604 85.3825H37.5293L3 5.55437H21.7635L45.7452 64.9536L70.2821 5.55437H88.0463Z" fill="#F5B7E5"/>
<path d="M109.938 85.3825H92.3955V5.55437H109.938V85.3825Z" fill="#F5B7E5"/>
<path d="M189.523 85.3825H168.095L137.784 45.746V85.3825H121.019V5.55437H137.784V43.9696L169.205 5.55437H189.301L157.214 44.6357L189.523 85.3825Z" fill="#F5B7E5"/>
<path d="M270.225 85.3825H251.573L244.245 66.2859H209.494L202.61 85.3825H184.846L218.376 5.55437H236.14L270.225 85.3825ZM238.805 52.1855L226.703 21.6532L214.934 52.1855H238.805Z" fill="#F5B7E5"/>
<path d="M362.918 85.3825H334.717L327.611 85.0494L325.058 84.9383C324.466 84.9383 323.762 84.8273 322.948 84.6053C322.43 84.4572 322.134 84.3462 322.06 84.2722C321.616 84.1982 321.283 84.1242 321.061 84.0501C313.141 82.0517 307.071 77.3515 302.852 69.9498C301.076 66.9891 299.744 63.7323 298.855 60.1794C297.893 56.8486 297.412 53.2588 297.412 49.4099C297.412 42.0821 298.004 35.9016 299.188 30.8684C300.373 25.6872 302.371 21.2091 305.184 17.4342C308.441 13.0672 312.512 10.0324 317.397 8.33004C319.395 7.58986 322.245 6.88669 325.946 6.22053C329.203 5.77642 341.527 5.55437 362.918 5.55437V19.4327H335.383C322.8 19.4327 316.509 25.6502 316.509 38.0851H362.918V51.9635H316.509C316.509 55.1462 316.768 57.8109 317.286 59.9574C317.508 61.1417 317.841 62.2519 318.285 63.2882C318.655 64.1024 319.284 65.0276 320.172 66.0638L323.17 68.9505C324.132 69.6907 325.317 70.2828 326.723 70.727C328.203 71.1711 329.573 71.3931 330.831 71.3931L362.918 71.5041V85.3825Z" fill="#F5B7E5"/>
<path d="M450.493 85.3825H431.73L414.077 54.184H394.425V85.3825H377.66V5.55437H422.959L426.068 6.1095L428.399 6.44259C429.139 6.44259 429.62 6.47959 429.842 6.55361C430.213 6.62763 431.101 6.84968 432.507 7.21977C437.17 8.33004 440.797 11.1797 443.388 15.7688C445.682 19.8398 446.829 24.6139 446.829 30.0912C446.829 35.5685 445.534 40.2317 442.944 44.0806C440.501 47.8555 436.467 50.4831 430.842 51.9635L450.493 85.3825ZM429.953 29.8692C429.953 26.5384 429.065 24.0958 427.289 22.5414C425.216 20.765 421.108 19.8768 414.965 19.8768H394.425V40.0836H414.965C421.034 40.0836 425.068 39.1954 427.067 37.419C428.991 35.5685 429.953 33.0519 429.953 29.8692Z" fill="#F5B7E5"/>
<path d="M525.991 5.55437L495.459 50.2981V85.3825H478.472V50.2981L448.384 5.55437H467.036L486.799 36.1977L506.673 5.55437H525.991Z" fill="#F5B7E5"/>
<path d="M598.174 85.3825H576.746L546.436 45.746V85.3825H529.671V5.55437H546.436V43.9696L577.856 5.55437H597.952L565.866 44.6357L598.174 85.3825Z" fill="#F5B7E5"/>
<path d="M678.877 85.3825H660.224L652.896 66.2859H618.145L611.262 85.3825H593.497L627.027 5.55437H644.792L678.877 85.3825ZM647.456 52.1855L635.354 21.6532L623.585 52.1855H647.456Z" fill="#F5B7E5"/>
<path d="M737.461 85.3825H713.479C702.524 85.3825 694.641 82.7178 689.83 77.3885C685.019 71.9853 682.613 48.0405 682.613 5.55437H699.267V49.4099L699.378 54.295L699.6 59.9574C700.045 64.6205 702.08 67.8773 705.707 69.7277C708.52 71.3561 719.104 72.1703 737.461 72.1703V85.3825Z" fill="#F5B7E5"/>
<path d="M821.024 51.2973C821.024 61.1417 817.73 69.5797 811.142 76.6114C807.96 80.0162 803.852 82.6068 798.818 84.3832C793.859 86.1596 787.901 87.0479 780.943 87.0479C767.472 87.0479 757.442 83.532 750.855 76.5003C744.341 69.5427 741.085 59.1432 741.085 45.3019C741.085 31.7566 744.341 21.5052 750.855 14.5475C757.368 7.51584 766.399 4 777.945 4C789.492 4 798.263 5.6654 804.259 8.9962C811.068 12.6971 815.805 18.9516 818.47 27.7597C819.284 30.8684 819.913 34.2732 820.357 37.9741C820.802 41.9711 821.024 46.4121 821.024 51.2973ZM802.704 45.635C802.704 37.1969 801.224 30.7204 798.263 26.2053C794.636 20.58 788.863 17.7673 780.943 17.7673C773.393 17.7673 767.731 20.543 763.956 26.0943C760.847 30.7574 759.293 36.3087 759.293 42.7483C759.293 49.4839 759.996 55.3313 761.402 60.2905C761.995 62.585 762.957 64.7685 764.289 66.841C765.843 68.8395 767.768 70.2828 770.062 71.1711L775.614 72.7254C777.834 73.1695 781.239 73.3916 785.828 73.3916C790.269 73.3916 794.377 70.6159 798.152 65.0646C801.187 60.2534 802.704 53.7769 802.704 45.635Z" fill="#F5B7E5"/>
<path d="M905.674 5.55437L872.588 85.3825H855.157L820.628 5.55437H839.392L863.373 64.9536L887.91 5.55437H905.674Z" fill="#F5B7E5"/>
<path d="M972.598 85.3825H953.946L946.618 66.2859H911.867L904.983 85.3825H887.219L920.749 5.55437H938.513L972.598 85.3825ZM941.178 52.1855L929.076 21.6532L917.307 52.1855H941.178Z" fill="#F5B7E5"/>
</g>
<defs>
<filter id="filter0_d_33_40" x="0.2" y="0.2" width="990.6" height="102.199" filterUnits="userSpaceOnUse" color-interpolation-filters="sRGB">
<feFlood flood-opacity="0" result="BackgroundImageFix"/>
<feColorMatrix in="SourceAlpha" type="matrix" values="0 0 0 0 0 0 0 0 0 0 0 0 0 0 0 0 0 0 127 0" result="hardAlpha"/>
<feOffset dx="4" dy="3"/>
<feGaussianBlur stdDeviation="3.4"/>
<feComposite in2="hardAlpha" operator="out"/>
<feColorMatrix type="matrix" values="0 0 0 0 1 0 0 0 0 1 0 0 0 0 1 0 0 0 0.49 0"/>
<feBlend mode="normal" in2="BackgroundImageFix" result="effect1_dropShadow_33_40"/>
<feBlend mode="normal" in="SourceGraphic" in2="effect1_dropShadow_33_40" result="shape"/>
</filter>
<filter id="filter1_d_33_40" x="6.40176" y="9.55133" width="977.598" height="91.0479" filterUnits="userSpaceOnUse" color-interpolation-filters="sRGB">
<feFlood flood-opacity="0" result="BackgroundImageFix"/>
<feColorMatrix in="SourceAlpha" type="matrix" values="0 0 0 0 0 0 0 0 0 0 0 0 0 0 0 0 0 0 127 0" result="hardAlpha"/>
<feOffset dy="4"/>
<feGaussianBlur stdDeviation="2"/>
<feComposite in2="hardAlpha" operator="out"/>
<feColorMatrix type="matrix" values="0 0 0 0 0 0 0 0 0 0 0 0 0 0 0 0 0 0 0.25 0"/>
<feBlend mode="normal" in2="BackgroundImageFix" result="effect1_dropShadow_33_40"/>
<feBlend mode="normal" in="SourceGraphic" in2="effect1_dropShadow_33_40" result="shape"/>
</filter>
</defs>
</svg>
